<svg width="1233" height="100" viewBox="0 0 1233 100" fill="none" xmlns="http://www.w3.org/2000/svg">
<path d="M196.1 8.19999V78.8H240.1V88.3H185.6V8.19999H196.1Z" fill="#9A845B"/>
<path d="M262.409 8.19999V88.3H251.909V8.19999H262.409ZM279.643 8.19999H312.343C330.043 8.19999 340.043 16.7 340.043 30.4C340.043 37.9 334.843 45.2 327.643 46.9C336.743 48.7 343.843 55.8 343.843 65.7C343.843 79.5 333.343 88.3 315.343 88.3H279.643V8.19999ZM312.043 43.5C323.143 43.5 329.443 38.9 329.443 30.4C329.443 21.9 323.143 17.3 312.043 17.3H290.143V43.5H312.043ZM315.043 79.2C326.243 79.2 333.243 74.5 333.243 65.7C333.243 56.9 326.243 52.2 315.043 52.2H290.143V79.2H315.043ZM357.377 8.19999H414.277V17.5H367.877V42.7H410.777V52H367.877V79H415.177V88.3H357.377V8.19999ZM493.766 88.3H481.366L463.166 59.8C461.666 59.9 460.166 60 458.666 60H439.166V88.3H428.666V8.19999H458.666C478.866 8.19999 490.766 18.3 490.766 34.1C490.766 45.4 484.666 53.8 473.666 57.7L493.766 88.3ZM457.866 50.6C471.766 50.6 480.266 44.9 480.266 34.1C480.266 23.3 471.766 17.6 457.866 17.6H439.166V50.6H457.866ZM566.476 17.6H537.776V88.3H527.276V17.6H498.476V8.19999H566.476V17.6ZM648.531 8.19999L616.131 61.5V88.3H605.531V61.5L574.131 8.19999H586.031L611.231 51.7L637.231 8.19999H648.531ZM711.748 90.1C694.448 90.1 684.048 79.6 683.448 65.7H693.848C694.148 74.3 700.448 81 711.748 81C722.848 81 729.748 73.2 729.748 62.7C729.748 52.4 722.548 44.8 711.948 44.8C703.148 44.8 698.048 49.3 695.348 54.3H685.048L687.348 8.19999H735.948V17.3H696.948L695.548 43.5C698.548 39.8 704.448 35.8 713.648 35.8C728.848 35.8 740.048 46.7 740.048 62.7C740.048 78.6 728.548 90.1 711.748 90.1ZM749.869 88.3V81.5L778.269 53C788.469 42.7 792.469 36.2 792.469 30.5C792.469 21.1 786.069 15.6 776.069 15.6C765.269 15.6 759.469 23.8 759.469 32.7H748.969C748.969 18.2 759.469 6.3 776.169 6.3C792.269 6.3 802.869 16 802.869 30.4C802.869 39 797.969 46.3 785.969 58.6L764.969 79.2H805.569V88.3H749.869ZM847.221 8.19999H903.221V17.6H857.721V44.9L898.821 44.8V54.2H857.721V88.3H847.221V8.19999Z" fill="black"/>
<path d="M979.509 88.3H967.109L948.909 59.8C947.409 59.9 945.909 60 944.409 60H924.909V88.3H914.409V8.19999H944.409C964.609 8.19999 976.509 18.3 976.509 34.1C976.509 45.4 970.409 53.8 959.409 57.7L979.509 88.3ZM943.609 50.6C957.509 50.6 966.009 44.9 966.009 34.1C966.009 23.3 957.509 17.6 943.609 17.6H924.909V50.6H943.609ZM1050.65 88.3L1042.65 68.5H1004.15L996.155 88.3H985.155L1018.15 8.19999H1029.25L1062.15 88.3H1050.65ZM1007.85 59.2H1038.95L1023.45 20.5L1007.85 59.2ZM1072.81 8.19999H1082.01L1112.91 62.6L1143.81 8.19999H1153.01V88.3H1142.51V29.2L1116.71 74.8H1109.11L1083.31 29.2V88.3H1072.81V8.19999ZM1170.07 8.19999H1226.97V17.5H1180.57V42.7H1223.47V52H1180.57V79H1227.87V88.3H1170.07V8.19999Z" fill="#8F8F8F"/>
<line x1="87" y1="70.1038" x2="87" y2="30.8312" stroke="black" stroke-width="10"/>
<line x1="28" y1="69.1687" x2="28" y2="29.8961" stroke="black" stroke-width="10"/>
<line x1="23" y1="33.3117" x2="92" y2="33.3117" stroke="black" stroke-width="10"/>
<line x1="23" y1="65.1038" x2="92" y2="65.1038" stroke="black" stroke-width="10"/>
<line x1="5" y1="85.9999" x2="5" y2="14" stroke="#9A845B" stroke-width="10"/>
<line x1="110" y1="85.9999" x2="110" y2="14" stroke="black" stroke-width="10"/>
<line y1="18.3506" x2="115" y2="18.3506" stroke="black" stroke-width="10"/>
<line y1="80.9999" x2="115" y2="80.9999" stroke="#9A845B" stroke-width="10"/>
</svg>
