<svg fill="none" height="20" viewBox="0 0 20 20" width="20" xmlns="http://www.w3.org/2000/svg"><path d="m4.64119 12.5 2.87283 2.7038c.30163.2839.31602.7586.03213 1.0602-.28389.3017-.75854.316-1.06017.0321l-4.25-4c-.15059-.1417-.23598-.3393-.23598-.5461s.08539-.4044.23598-.5462l4.25-3.99995c.30163-.28389.77628-.2695 1.06017.03213s.2695.77628-.03213 1.06017l-2.87284 2.70385h10.10882c.9665 0 1.75-.7835 1.75-1.75v-4.5c0-.41421.3358-.75.75-.75s.75.33579.75.75v4.5c0 1.7949-1.4551 3.25-3.25 3.25z" fill="#212121"/></svg>