<svg width="1368" height="190" viewBox="0 0 1368 190" fill="none" xmlns="http://www.w3.org/2000/svg">
<rect width="1368" height="190" fill="white"/>
<path d="M283.1 53.2V123.8H327.1V133.3H272.6V53.2H283.1Z" fill="#9A845B"/>
<path d="M349.409 53.2V133.3H338.909V53.2H349.409ZM366.643 53.2H399.343C417.043 53.2 427.043 61.7 427.043 75.4C427.043 82.9 421.843 90.2 414.643 91.9C423.743 93.7 430.843 100.8 430.843 110.7C430.843 124.5 420.343 133.3 402.343 133.3H366.643V53.2ZM399.043 88.5C410.143 88.5 416.443 83.9 416.443 75.4C416.443 66.9 410.143 62.3 399.043 62.3H377.143V88.5H399.043ZM402.043 124.2C413.243 124.2 420.243 119.5 420.243 110.7C420.243 101.9 413.243 97.2 402.043 97.2H377.143V124.2H402.043ZM444.377 53.2H501.277V62.5H454.877V87.7H497.777V97H454.877V124H502.177V133.3H444.377V53.2ZM580.766 133.3H568.366L550.166 104.8C548.666 104.9 547.166 105 545.666 105H526.166V133.3H515.666V53.2H545.666C565.866 53.2 577.766 63.3 577.766 79.1C577.766 90.4 571.666 98.8 560.666 102.7L580.766 133.3ZM544.866 95.6C558.766 95.6 567.266 89.9 567.266 79.1C567.266 68.3 558.766 62.6 544.866 62.6H526.166V95.6H544.866ZM653.476 62.6H624.776V133.3H614.276V62.6H585.476V53.2H653.476V62.6ZM735.531 53.2L703.131 106.5V133.3H692.531V106.5L661.131 53.2H673.031L698.231 96.7L724.231 53.2H735.531ZM798.748 135.1C781.448 135.1 771.048 124.6 770.448 110.7H780.848C781.148 119.3 787.448 126 798.748 126C809.848 126 816.748 118.2 816.748 107.7C816.748 97.4 809.548 89.8 798.948 89.8C790.148 89.8 785.048 94.3 782.348 99.3H772.048L774.348 53.2H822.948V62.3H783.948L782.548 88.5C785.548 84.8 791.448 80.8 800.648 80.8C815.848 80.8 827.048 91.7 827.048 107.7C827.048 123.6 815.548 135.1 798.748 135.1ZM836.869 133.3V126.5L865.269 98C875.469 87.7 879.469 81.2 879.469 75.5C879.469 66.1 873.069 60.6 863.069 60.6C852.269 60.6 846.469 68.8 846.469 77.7H835.969C835.969 63.2 846.469 51.3 863.169 51.3C879.269 51.3 889.869 61 889.869 75.4C889.869 84 884.969 91.3 872.969 103.6L851.969 124.2H892.569V133.3H836.869ZM934.221 53.2H990.221V62.6H944.721V89.9L985.821 89.8V99.2H944.721V133.3H934.221V53.2Z" fill="black"/>
<path d="M1066.51 133.3H1054.11L1035.91 104.8C1034.41 104.9 1032.91 105 1031.41 105H1011.91V133.3H1001.41V53.2H1031.41C1051.61 53.2 1063.51 63.3 1063.51 79.1C1063.51 90.4 1057.41 98.8 1046.41 102.7L1066.51 133.3ZM1030.61 95.6C1044.51 95.6 1053.01 89.9 1053.01 79.1C1053.01 68.3 1044.51 62.6 1030.61 62.6H1011.91V95.6H1030.61ZM1137.65 133.3L1129.65 113.5H1091.15L1083.15 133.3H1072.15L1105.15 53.2H1116.25L1149.15 133.3H1137.65ZM1094.85 104.2H1125.95L1110.45 65.5L1094.85 104.2ZM1159.81 53.2H1169.01L1199.91 107.6L1230.81 53.2H1240.01V133.3H1229.51V74.2L1203.71 119.8H1196.11L1170.31 74.2V133.3H1159.81V53.2ZM1257.07 53.2H1313.97V62.5H1267.57V87.7H1310.47V97H1267.57V124H1314.87V133.3H1257.07V53.2Z" fill="#8F8F8F"/>
<line x1="174" y1="115.104" x2="174" y2="75.8312" stroke="black" stroke-width="10"/>
<line x1="115" y1="114.169" x2="115" y2="74.8961" stroke="black" stroke-width="10"/>
<line x1="110" y1="78.3117" x2="179" y2="78.3117" stroke="black" stroke-width="10"/>
<line x1="110" y1="110.104" x2="179" y2="110.104" stroke="black" stroke-width="10"/>
<line x1="92" y1="131" x2="92" y2="59" stroke="#9A845B" stroke-width="10"/>
<line x1="197" y1="131" x2="197" y2="59" stroke="black" stroke-width="10"/>
<line x1="87" y1="63.3506" x2="202" y2="63.3506" stroke="black" stroke-width="10"/>
<line x1="87" y1="126" x2="202" y2="126" stroke="#9A845B" stroke-width="10"/>
</svg>
